<?xml version="1.0" encoding="UTF-8"?>
<svg width="94px" height="60px" viewBox="0 0 94 60" version="1.1" xmlns="http://www.w3.org/2000/svg" xmlns:xlink="http://www.w3.org/1999/xlink">
    <!-- Generator: Sketch 55.1 (78136) - https://sketchapp.com -->
    <title>cargo-truck</title>
    <desc>Created with Sketch.</desc>
    <g id="Web---E1---V2" stroke="none" stroke-width="1" fill="none" fill-rule="evenodd">
        <g id="SB-Logistics" transform="translate(-770.000000, -6550.000000)" fill="#FFFFFF" fill-rule="nonzero">
            <g id="cargo-truck" transform="translate(770.000000, 6550.000000)">
                <path d="M78,44 C73.5887735,44 70,47.5896963 70,52 C70,56.4112265 73.5887735,60 78,60 C82.4103037,60 86,56.4112265 86,52 C86,47.5896963 82.4103037,44 78,44 Z M78,54.3529412 C76.7021915,54.3529412 75.6470588,53.2978085 75.6470588,52 C75.6470588,50.7021915 76.7021915,49.6470588 78,49.6470588 C79.2978085,49.6470588 80.3529412,50.7021915 80.3529412,52 C80.3529412,53.2978085 79.2978085,54.3529412 78,54.3529412 Z" id="Shape"></path>
                <path d="M76.7325384,10 L62.8857231,10 C61.8437995,10 61,10.8544004 61,11.9069767 L61,49.0930233 C61,50.1455996 61.8437995,51 62.8857231,51 L64.8856064,51 C65.8190701,51 66.6459227,50.3200942 66.7665535,49.3838995 C67.506669,43.6495706 72.0296313,40.0931525 77.5010014,40.0931525 C82.9723715,40.0931525 87.4953338,43.6497264 88.2354493,49.3838995 C88.3560801,50.32025 89.1820083,51 90.1163964,51 L92.1142769,51 C93.1551221,51 94,50.1455996 94,49.0930233 L94,30.5 C94,30.0519228 93.844397,29.618958 93.5606142,29.2766682 L78.1787217,10.6836449 C77.8206808,10.250836 77.2907063,10 76.7325384,10 Z M64.7714462,25.255814 L64.7714462,15.7209302 C64.7714462,14.6683539 65.6152456,13.8139535 66.6571693,13.8139535 L74.9637487,13.8139535 C75.5228409,13.8139535 76.0537397,14.0657243 76.4119347,14.5004028 L84.2688061,24.0352865 C85.2917801,25.2776258 84.4187088,27.1627907 82.8196957,27.1627907 L66.6571693,27.1627907 C65.6152456,27.1627907 64.7714462,26.3094809 64.7714462,25.255814 Z" id="Shape"></path>
                <path d="M1.86885246,51 L6.65412247,51 C7.57923497,51 8.39869013,50.3265432 8.51824172,49.3992284 C9.25173578,43.7192901 13.7342334,40.1966049 19.1566538,40.1966049 C24.5790743,40.1966049 29.0615718,43.7194444 29.7950659,49.3992284 C29.9146175,50.3266975 30.7331565,51 31.6591851,51 L55.1311475,51 C56.1628335,51 57,50.1537037 57,49.1111111 L57,1.88888889 C57,0.846296296 56.1626808,0 55.1311475,0 L1.86885246,0 C0.836250402,0 0,0.846296296 0,1.88888889 L0,49.1111111 C0,50.153858 0.836250402,51 1.86885246,51 Z" id="Path"></path>
                <path d="M19,44 C14.5887735,44 11,47.5896963 11,52 C11,56.4112265 14.5887735,60 19,60 C23.4103037,60 27,56.4112265 27,52 C27,47.5896963 23.4103037,44 19,44 Z M19,54.3529412 C17.7021915,54.3529412 16.6470588,53.2978085 16.6470588,52 C16.6470588,50.7021915 17.7021915,49.6470588 19,49.6470588 C20.2978085,49.6470588 21.3529412,50.7021915 21.3529412,52 C21.3529412,53.2978085 20.2978085,54.3529412 19,54.3529412 Z" id="Shape"></path>
            </g>
        </g>
    </g>
</svg>