<?xml version="1.0" encoding="UTF-8"?>
<svg width="171px" height="53px" viewBox="0 0 171 53" version="1.1" xmlns="http://www.w3.org/2000/svg" xmlns:xlink="http://www.w3.org/1999/xlink">
    <!-- Generator: Sketch 55.1 (78136) - https://sketchapp.com -->
    <title>cargo-truck copy 3</title>
    <desc>Created with Sketch.</desc>
    <g id="Web---E1---V2" stroke="none" stroke-width="1" fill="none" fill-rule="evenodd">
        <g id="SB-Logistics" transform="translate(-253.000000, -6553.000000)" fill="#FFFFFF" fill-rule="nonzero">
            <g id="cargo-truck-copy-3" transform="translate(253.000000, 6553.000000)">
                <path d="M160,39 C156.140177,39 153,42.1409842 153,46 C153,49.8598231 156.140177,53 160,53 C163.859016,53 167,49.8598231 167,46 C167,42.1409842 163.859016,39 160,39 Z M160,48.0588235 C158.864418,48.0588235 157.941176,47.1355825 157.941176,46 C157.941176,44.8644175 158.864418,43.9411765 160,43.9411765 C161.135582,43.9411765 162.058824,44.8644175 162.058824,46 C162.058824,47.1355825 161.135582,48.0588235 160,48.0588235 Z" id="Shape"></path>
                <path d="M138.825564,0 L126.657151,0 C125.741521,0 125,0.753882675 125,1.68262654 L125,45 L148.414624,45 C149.23494,45 149.961568,44.4000832 150.067577,43.574029 C150.717982,38.514327 154.692706,35.376311 159.50088,35.376311 C164.309054,35.376311 168.283778,38.5144645 168.934183,43.574029 C169.004855,44.1248234 169.55584,44.6001471 170.587136,45 C170.587136,49.3467852 170.587136,48.7859097 170.587136,43.3173735 C170.587136,37.8488372 170.587136,32.380301 170.587136,26.9117647 C170.587136,26.5164025 153.863258,26.1343747 153.613873,25.8323543 L150.587136,10.8842801 C148.5668,9.46668791 147.360987,8.49562176 146.969697,7.97108163 C141.596545,0.768146653 139.316075,0 138.825564,0 Z M137.047466,22.2845417 L137.047466,13.871409 C137.047466,12.9426652 137.642535,12.1887825 138.377327,12.1887825 L144.23534,12.1887825 C144.498197,12.1887825 146.068145,12.1887825 148.945183,12.1887825 L150.797505,21.2076058 C151.518933,22.3037875 150.90322,23.9671683 149.775555,23.9671683 L138.377327,23.9671683 C137.642535,23.9671683 137.047466,23.2142479 137.047466,22.2845417 Z" id="Shape"></path>
                <path d="M3.96721311,36 L14.1254179,36 C16.0892532,36 65.2405604,36 67.2063404,36 L117.032787,36 C119.222857,36 121,35.4026144 121,34.6666667 L121,1.33333333 C121,0.597385621 119.222533,0 117.032787,0 L3.96721311,0 C1.77519822,0 0,0.597385621 0,1.33333333 L0,34.6666667 C0,35.4027233 1.77519822,36 3.96721311,36 Z" id="Path"></path>
                <path d="M39.6393443,43 L43.8369495,43 C44.6484517,43 64.9589092,43 65.771215,43 L86.3606557,43 C87.2656434,43 88,42.9336238 88,42.8518519 L88,39.1481481 C88,39.0663762 87.2655095,39 86.3606557,39 L39.6393443,39 C38.733553,39 38,39.0663762 38,39.1481481 L38,42.8518519 C38,42.9336359 38.733553,43 39.6393443,43 Z" id="Path-Copy"></path>
                <path d="M129.557377,51 L130.984563,51 C131.260474,51 138.166029,51 138.442213,51 L145.442623,51 C145.750319,51 146,50.9336238 146,50.8518519 L146,47.1481481 C146,47.0663762 145.750273,47 145.442623,47 L129.557377,47 C129.249408,47 129,47.0663762 129,47.1481481 L129,50.8518519 C129,50.9336359 129.249408,51 129.557377,51 Z" id="Path-Copy-2"></path>
                <path d="M0.0655737705,48 L0.233477981,48 C0.265938069,48 1.07835637,48 1.1108486,48 L1.93442623,48 C1.97062574,48 2,47.8506536 2,47.6666667 L2,39.3333333 C2,39.1493464 1.97062038,39 1.93442623,39 L0.0655737705,39 C0.0293421194,39 0,39.1493464 0,39.3333333 L0,47.6666667 C0,47.8506808 0.0293421194,48 0.0655737705,48 Z" id="Path-Copy-3"></path>
                <path d="M114,39 C110.140177,39 107,42.1409842 107,46 C107,49.8598231 110.140177,53 114,53 C117.859016,53 121,49.8598231 121,46 C121,42.1409842 117.859016,39 114,39 Z M114,48.0588235 C112.864418,48.0588235 111.941176,47.1355825 111.941176,46 C111.941176,44.8644175 112.864418,43.9411765 114,43.9411765 C115.135582,43.9411765 116.058824,44.8644175 116.058824,46 C116.058824,47.1355825 115.135582,48.0588235 114,48.0588235 Z" id="Shape"></path>
                <path d="M28,39 C24.1401769,39 21,42.1409842 21,46 C21,49.8598231 24.1401769,53 28,53 C31.8590158,53 35,49.8598231 35,46 C35,42.1409842 31.8590158,39 28,39 Z M28,48.0588235 C26.8644175,48.0588235 25.9411765,47.1355825 25.9411765,46 C25.9411765,44.8644175 26.8644175,43.9411765 28,43.9411765 C29.1355825,43.9411765 30.0588235,44.8644175 30.0588235,46 C30.0588235,47.1355825 29.1355825,48.0588235 28,48.0588235 Z" id="Shape-Copy-3"></path>
                <path d="M97,39 C93.1401769,39 90,42.1409842 90,46 C90,49.8598231 93.1401769,53 97,53 C100.859016,53 104,49.8598231 104,46 C104,42.1409842 100.859016,39 97,39 Z M97,48.0588235 C95.8644175,48.0588235 94.9411765,47.1355825 94.9411765,46 C94.9411765,44.8644175 95.8644175,43.9411765 97,43.9411765 C98.1355825,43.9411765 99.0588235,44.8644175 99.0588235,46 C99.0588235,47.1355825 98.1355825,48.0588235 97,48.0588235 Z" id="Shape-Copy"></path>
                <path d="M12,39 C8.14017686,39 5,42.1409842 5,46 C5,49.8598231 8.14017686,53 12,53 C15.8590158,53 19,49.8598231 19,46 C19,42.1409842 15.8590158,39 12,39 Z M12,48.0588235 C10.8644175,48.0588235 9.94117647,47.1355825 9.94117647,46 C9.94117647,44.8644175 10.8644175,43.9411765 12,43.9411765 C13.1355825,43.9411765 14.0588235,44.8644175 14.0588235,46 C14.0588235,47.1355825 13.1355825,48.0588235 12,48.0588235 Z" id="Shape-Copy-4"></path>
            </g>
        </g>
    </g>
</svg>