<?xml version="1.0" encoding="UTF-8"?>
<svg width="115px" height="74px" viewBox="0 0 115 74" version="1.1" xmlns="http://www.w3.org/2000/svg" xmlns:xlink="http://www.w3.org/1999/xlink">
    <!-- Generator: Sketch 55.1 (78136) - https://sketchapp.com -->
    <title>cargo-ship</title>
    <desc>Created with Sketch.</desc>
    <g id="Web---E1---V2" stroke="none" stroke-width="1" fill="none" fill-rule="evenodd">
        <g id="SB-Logistics" transform="translate(-343.000000, -856.000000)" fill="#6AA12A" fill-rule="nonzero">
            <g id="cargo-ship" transform="translate(343.000000, 856.000000)">
                <path d="M113.312933,41.9221209 L109.056572,41.9221209 L109.056572,15.3331407 C109.056828,14.8818472 108.878555,14.4489634 108.561025,14.1298507 C108.243494,13.810738 107.812756,13.6315767 107.3637,13.6318348 L101.543126,13.6318348 L101.543126,1.70130587 C101.543126,0.761700582 100.785202,0 99.850255,0 L86.5462231,0 C85.9260798,0 85.35565,0.341047833 85.0593987,0.88856775 L78.1679624,13.6318348 L71.660566,13.6318348 C70.7256192,13.6318348 69.967695,14.3935354 69.967695,15.3331407 L69.967695,50.9740403 L59.1961982,50.9740403 L59.1961982,25.5205602 C59.1956645,24.5811771 58.4380529,23.8197906 57.5033272,23.8192543 L13.5215695,23.8192543 C12.5868438,23.8197906 11.8292321,24.5811771 11.8286985,25.5205602 L11.8286985,41.9221209 L1.69372124,41.9221209 C1.08051022,41.9218116 0.515074907,42.2547911 0.215604599,42.7925698 C-0.0838657082,43.3303485 -0.0705445449,43.9888371 0.250427739,44.5139389 L12.811531,65.0841851 C16.2101687,70.6065636 22.202521,73.9768988 28.6635757,74 L113.307129,74 C114.242076,74 115,73.2382994 115,72.2986941 L115,43.6195381 C114.997877,42.683724 114.244105,41.925327 113.312933,41.9221209 Z M87.5532396,3.40261173 L98.160286,3.40261173 L98.160286,13.6318348 L82.0219043,13.6318348 L87.5532396,3.40261173 Z M73.3534371,17.0344465 L105.677601,17.0344465 L105.677601,41.9221209 L87.6847999,41.9221209 C87.0809809,41.9224552 86.5229961,42.2458025 86.2202245,42.7708295 L81.4801856,50.9740403 L73.3544044,50.9740403 L73.3534371,17.0344465 Z M46.8962807,50.9740403 L43.4563667,45.3247327 L55.8104561,45.3247327 L55.8104561,50.9740403 L46.8962807,50.9740403 Z M15.2144406,41.9221209 L15.2144406,36.2737854 L33.8195773,36.2737854 L33.8195773,41.9221209 L15.2144406,41.9221209 Z M37.2053194,36.2737854 L55.8104561,36.2737854 L55.8104561,41.9221209 L37.2053194,41.9221209 L37.2053194,36.2737854 Z M55.8104561,32.8711737 L37.2053194,32.8711737 L37.2053194,27.2218661 L55.8104561,27.2218661 L55.8104561,32.8711737 Z M33.8195773,27.2218661 L33.8195773,32.8711737 L15.2144406,32.8711737 L15.2144406,27.2218661 L33.8195773,27.2218661 Z M111.620062,70.5973883 L28.6655104,70.5973883 C23.3823256,70.5772574 18.4827171,67.8212755 15.7029548,63.3060774 L4.71864,45.3247327 L39.4863422,45.3247327 L44.5040121,53.5629417 C44.8107385,54.0688314 45.3578366,54.3772783 45.9473056,54.376652 L82.4543119,54.376652 C83.0583833,54.3763166 83.6165064,54.0525187 83.9188872,53.5269713 L88.6521547,45.3247327 L111.618127,45.3247327 L111.620062,70.5973883 Z" id="Shape"></path>
                <path d="M88.4583333,25 L91.5416667,25 C92.3470819,25 93,24.3284271 93,23.5 C93,22.6715729 92.3470819,22 91.5416667,22 L88.4583333,22 C87.6529181,22 87,22.6715729 87,23.5 C87,24.3284271 87.6529181,25 88.4583333,25 L88.4583333,25 Z" id="Path"></path>
                <path d="M78.4583333,25 L81.5416667,25 C82.3470819,25 83,24.3284271 83,23.5 C83,22.6715729 82.3470819,22 81.5416667,22 L78.4583333,22 C77.6529181,22 77,22.6715729 77,23.5 C77,24.3284271 77.6529181,25 78.4583333,25 L78.4583333,25 Z" id="Path"></path>
                <path d="M98.4583333,25 L101.541667,25 C102.347082,25 103,24.3284271 103,23.5 C103,22.6715729 102.347082,22 101.541667,22 L98.4583333,22 C97.6529181,22 97,22.6715729 97,23.5 C97,24.3284271 97.6529181,25 98.4583333,25 L98.4583333,25 Z" id="Path"></path>
                <path d="M88.4583333,32 L91.5416667,32 C92.3470819,32 93,31.3284271 93,30.5 C93,29.6715729 92.3470819,29 91.5416667,29 L88.4583333,29 C87.6529181,29 87,29.6715729 87,30.5 C87,31.3284271 87.6529181,32 88.4583333,32 L88.4583333,32 Z" id="Path"></path>
                <path d="M78.4583333,32 L81.5416667,32 C82.3470819,32 83,31.3284271 83,30.5 C83,29.6715729 82.3470819,29 81.5416667,29 L78.4583333,29 C77.6529181,29 77,29.6715729 77,30.5 C77,31.3284271 77.6529181,32 78.4583333,32 Z" id="Path"></path>
                <path d="M98.4583333,32 L101.541667,32 C102.347082,32 103,31.3284271 103,30.5 C103,29.6715729 102.347082,29 101.541667,29 L98.4583333,29 C97.6529181,29 97,29.6715729 97,30.5 C97,31.3284271 97.6529181,32 98.4583333,32 L98.4583333,32 Z" id="Path"></path>
                <path d="M83,43.5 C82.9995403,42.6717688 82.3468914,42.0004729 81.5416667,42 L78.4583333,42 C77.6529181,42 77,42.6715729 77,43.5 C77,44.3284271 77.6529181,45 78.4583333,45 L81.5416667,45 C81.9284407,45 82.2993735,44.8419647 82.5728641,44.5606602 C82.8463546,44.2793556 83,43.8978247 83,43.5 L83,43.5 Z" id="Path"></path>
                <path d="M88.4583333,39 L91.5416667,39 C92.3470819,39 93,38.3284271 93,37.5 C93,36.6715729 92.3470819,36 91.5416667,36 L88.4583333,36 C87.6529181,36 87,36.6715729 87,37.5 C87,38.3284271 87.6529181,39 88.4583333,39 L88.4583333,39 Z" id="Path"></path>
                <path d="M78.4583333,39 L81.5416667,39 C82.3470819,39 83,38.3284271 83,37.5 C83,36.6715729 82.3470819,36 81.5416667,36 L78.4583333,36 C77.6529181,36 77,36.6715729 77,37.5 C77,38.3284271 77.6529181,39 78.4583333,39 Z" id="Path"></path>
                <path d="M98.4583333,39 L101.541667,39 C102.347082,39 103,38.3284271 103,37.5 C103,36.6715729 102.347082,36 101.541667,36 L98.4583333,36 C97.6529181,36 97,36.6715729 97,37.5 C97,38.3284271 97.6529181,39 98.4583333,39 L98.4583333,39 Z" id="Path"></path>
                <path d="M104.337989,63 L90.6620112,63 C89.7441077,63 89,63.6715729 89,64.5 C89,65.3284271 89.7441077,66 90.6620112,66 L104.337989,66 C105.255892,66 106,65.3284271 106,64.5 C106,63.6715729 105.255892,63 104.337989,63 L104.337989,63 Z" id="Path"></path>
                <path d="M83.2158787,63 L78.7841213,63 C77.7987783,63 77,63.6715729 77,64.5 C77,65.3284271 77.7987783,66 78.7841213,66 L83.2158787,66 C84.2012217,66 85,65.3284271 85,64.5 C85,63.6715729 84.2012217,63 83.2158787,63 Z" id="Path"></path>
            </g>
        </g>
    </g>
</svg>