<?xml version="1.0" encoding="UTF-8"?>
<svg width="90px" height="82px" viewBox="0 0 90 82" version="1.1" xmlns="http://www.w3.org/2000/svg" xmlns:xlink="http://www.w3.org/1999/xlink">
    <!-- Generator: Sketch 55.1 (78136) - https://sketchapp.com -->
    <title>plane</title>
    <desc>Created with Sketch.</desc>
    <g id="Web---E1---V2" stroke="none" stroke-width="1" fill="none" fill-rule="evenodd">
        <g id="SB-Free-trade-zone" transform="translate(-684.000000, -3704.000000)" fill="#EC7D39" fill-rule="nonzero">
            <g id="plane" transform="translate(720.500000, 3744.500000) rotate(-315.000000) translate(-720.500000, -3744.500000) translate(681.000000, 3705.000000)">
                <path d="M77.2138519,2.00575899 C75.3610485,0.149195263 72.1584804,-0.0333625121 67.9504442,1.47762362 C65.0566767,2.51710393 62.0213819,4.25903481 60.5692423,5.71400196 L48.9073362,17.3986154 L10.5194797,11.3574184 L0.751814493,21.1441026 L32.6679606,33.6696114 L22.4204129,43.9371125 L7.87586039,44.7905243 L0.90172064,51.7782437 L16.6858934,59.4093419 L12.2639668,63.8398786 L15.4997458,67.0819582 L19.915731,62.6573744 L27.5394641,78.4648018 L34.5119281,71.4786088 L35.3638337,56.905736 L45.7833774,46.465904 L58.2821071,78.4377845 L68.0496199,68.6511003 L62.0213819,30.1959765 L73.5126631,18.6821675 C74.9648027,17.227353 76.7035007,14.1861481 77.740961,11.2865933 C79.2490107,7.07158462 79.0668077,3.86201744 77.2138519,2.00575899 Z M8.93358232,19.4308681 L12.109338,16.2489288 L44.9040499,21.4098493 L36.1997433,30.1311044 L8.93358232,19.4308681 Z M63.1677678,67.0584516 L59.9921645,70.2403909 L49.3148554,42.9277023 L58.0179432,34.2076684 L63.1677678,67.0584516 Z M73.4331397,9.73988936 C72.5588395,12.1839655 71.11386,14.6019402 70.276884,15.4405459 L30.8975751,54.8968372 L30.0456694,69.4697101 L28.857846,70.6598464 L23.3427014,59.2243418 L27.320851,55.2384462 L24.0850719,51.9963666 L20.1134731,55.9753935 L8.69455514,50.4548524 L9.88100746,49.2660899 L24.42556,48.4126781 L63.8050213,8.95623416 C64.6421496,8.11747582 67.0554253,6.67014068 69.4947518,5.79383283 C72.2637499,4.79922876 73.732952,5.00224034 73.9780729,5.24783855 C74.2228891,5.49328412 74.4258109,6.9650417 73.4331397,9.73988936 Z" id="Shape"></path>
            </g>
        </g>
    </g>
</svg>