<?xml version="1.0" encoding="UTF-8"?>
<svg width="109px" height="63px" viewBox="0 0 109 63" version="1.1" xmlns="http://www.w3.org/2000/svg" xmlns:xlink="http://www.w3.org/1999/xlink">
    <!-- Generator: Sketch 55.1 (78136) - https://sketchapp.com -->
    <title>deal</title>
    <desc>Created with Sketch.</desc>
    <g id="Web---E1---V2" stroke="none" stroke-width="1" fill="none" fill-rule="evenodd">
        <g id="SB-Free-trade-zone" transform="translate(-986.000000, -3718.000000)" fill="#EC7D39" fill-rule="nonzero">
            <g id="deal" transform="translate(986.000000, 3718.000000)">
                <path d="M66.2,46 C63.9142857,46 61.6285714,45.0866142 60.2571429,43.7165354 L55.6857143,39.1496063 C54.7714286,38.2362205 54.7714286,36.8661417 55.6857143,35.9527559 C56.6,35.0393701 57.9714286,35.0393701 58.8857143,35.9527559 L63.4571429,40.519685 C64.8285714,41.8897638 67.5714286,41.8897638 69.4,40.519685 C71.2285714,38.6929134 71.2285714,36.4094488 69.4,34.5826772 L55.6857143,20.8818898 C54.7714286,19.9685039 54.7714286,18.5984252 55.6857143,17.6850394 C56.6,16.7716535 57.9714286,16.7716535 58.8857143,17.6850394 L72.6,31.3858268 C75.8,34.5826772 75.8,40.0629921 72.6,43.7165354 C70.7714286,45.0866142 68.4857143,46 66.2,46 L66.2,46 Z" id="Path"></path>
                <path d="M16.4590417,16 C15.5440495,16 14.6290572,15.5339341 14.1715611,14.6018024 C13.7140649,13.2036047 14.1715611,12.271473 15.5440495,11.3393412 L35.2163833,2.95015544 C39.3338485,1.08589193 44.366306,2.01802368 47.568779,5.28048482 L50.3137558,8.07688009 C51.2287481,9.00901184 51.2287481,10.4072095 50.3137558,11.3393412 C49.3987635,12.271473 48.0262751,12.271473 47.1112828,11.3393412 L44.366306,9.00901184 C42.5363215,7.14474833 39.3338485,6.67868246 37.0463679,7.61081421 L17.374034,16 C16.9165379,16 16.9165379,16 16.4590417,16 L16.4590417,16 Z" id="Path"></path>
                <path d="M49.2546842,25 C46.9937258,25 45.184959,24.0877808 43.3761923,22.719452 C41.5674255,20.4389041 40.6630421,17.7022465 41.1152338,14.965589 C41.5674255,12.2289314 42.9240006,9.94838344 45.6371507,9.03616425 L61.4638598,1.28230117 C64.6292016,-0.0860276053 67.7945434,-0.542137198 70.9598853,0.82619158 L94.4738531,10.404493 C95.8304281,10.8606026 96.2826198,12.2289314 95.8304281,13.5972602 C95.3782364,14.965589 94.0216614,15.4216986 92.6650863,14.965589 L69.1511185,5.38728751 C67.3423517,4.47506832 65.0813933,4.47506832 63.7248182,5.38728751 L47.8981091,13.1411506 C46.5415341,13.5972602 45.6371507,14.5094794 45.6371507,15.8778081 C45.6371507,17.2461369 45.6371507,18.1583561 46.5415341,19.0705753 C47.8981091,20.4389041 49.7068759,20.4389041 51.063451,19.9827945 L65.0813933,12.685041 C65.9857767,12.2289314 67.3423517,12.685041 68.2467351,13.5972602 C68.6989268,14.5094794 68.2467351,15.8778081 67.3423517,16.7900273 L53.3244094,24.0877808 C51.9678343,24.5438904 50.6112593,25 49.2546842,25 L49.2546842,25 Z" id="Path"></path>
                <path d="M56.3529412,54 C54.1069519,54 51.8609626,53.1011236 50.513369,51.3033708 L44.6737968,45.4606742 C43.7754011,44.5617978 43.7754011,43.2134831 44.6737968,42.3146067 C45.5721925,41.4157303 46.9197861,41.4157303 47.8181818,42.3146067 L53.657754,48.1573034 C55.0053476,49.505618 57.7005348,49.505618 59.4973262,48.1573034 C61.2941176,46.8089888 60.8449198,44.1123596 59.4973262,42.3146067 L55.0053476,37.8202247 C54.1069519,36.9213483 54.1069519,35.5730337 55.0053476,34.6741573 C55.9037433,33.7752809 57.2513369,33.7752809 58.1497326,34.6741573 L62.6417112,39.1685393 C65.7860963,42.3146067 65.7860963,47.7078652 62.6417112,51.3033708 C60.8449198,53.1011236 58.5989305,54 56.3529412,54 L56.3529412,54 Z" id="Path"></path>
                <path d="M47.2357724,63 C44.9593496,63 43.1382114,62.1020408 41.3170732,60.755102 L30.8455285,51.3265306 C26.7479675,47.7346939 21.7398374,45.9387755 16.2764228,45.9387755 C14.9105691,45.4897959 14,44.5918367 14,43.244898 C14,41.8979592 14.9105691,41 16.2764228,41 C22.6504065,41 29.0243902,43.244898 34.0325203,47.7346939 L44.504065,57.1632653 C46.3252033,58.5102041 48.601626,58.5102041 50.4227642,57.1632653 C52.2439024,55.3673469 52.2439024,53.122449 50.4227642,51.3265306 L45.8699187,46.8367347 C44.9593496,45.9387755 44.9593496,44.5918367 45.8699187,43.6938776 C46.7804878,42.7959184 48.1463415,42.7959184 49.0569106,43.6938776 L53.6097561,48.1836735 C56.796748,51.3265306 56.796748,56.7142857 53.6097561,60.3061224 C51.7886179,62.1020408 49.5121951,63 47.2357724,63 L47.2357724,63 Z" id="Path"></path>
                <path d="M82.697286,48 C81.3444676,48 80.4425887,48 79.0897704,47.5510204 L70.5219207,44.8571429 C69.1691023,44.4081633 68.7181628,43.0612245 69.1691023,42.1632653 C69.6200418,40.8163265 70.9728601,40.3673469 71.874739,40.8163265 L80.4425887,43.5102041 C82.697286,44.4081633 85.4029228,43.9591837 87.2066806,42.1632653 L92.1670146,37.6734694 C93.0688935,36.7755102 94.4217119,36.7755102 95.3235908,37.6734694 C96.2254697,38.5714286 96.2254697,39.9183673 95.3235908,40.8163265 L90.3632568,45.3061224 C87.65762,47.1020408 84.9519833,48 82.697286,48 L82.697286,48 Z" id="Path"></path>
                <path d="M106.75,50 L93.25,50 C91.9,50 91,49.08 91,47.7 L91,6.3 C91,4.92 91.9,4 93.25,4 L106.75,4 C108.1,4 109,4.92 109,6.3 L109,47.7 C109,49.08 108.1,50 106.75,50 Z M95.5,45.4 L104.5,45.4 L104.5,8.6 L95.5,8.6 L95.5,45.4 Z" id="Shape"></path>
                <path d="M15.75,50 L2.25,50 C0.9,50 0,49.08 0,47.7 L0,6.3 C0,4.92 0.9,4 2.25,4 L15.75,4 C17.1,4 18,4.92 18,6.3 L18,47.7 C18,49.08 17.1,50 15.75,50 Z M4.5,45.4 L13.5,45.4 L13.5,8.6 L4.5,8.6 L4.5,45.4 Z" id="Shape"></path>
            </g>
        </g>
    </g>
</svg>