<?xml version="1.0" encoding="UTF-8"?>
<svg width="79px" height="79px" viewBox="0 0 79 79" version="1.1" xmlns="http://www.w3.org/2000/svg" xmlns:xlink="http://www.w3.org/1999/xlink">
    <!-- Generator: Sketch 55.1 (78136) - https://sketchapp.com -->
    <title>document</title>
    <desc>Created with Sketch.</desc>
    <g id="Web---E1---V2" stroke="none" stroke-width="1" fill="none" fill-rule="evenodd">
        <g id="SB-Free-trade-zone" transform="translate(-360.000000, -3710.000000)" fill="#EC7D39" fill-rule="nonzero">
            <g id="document" transform="translate(360.000000, 3710.000000)">
                <path d="M75.0494012,0 L25.0164671,0 C24.3153376,0.0020939962 22.9986815,0.0020939962 21.0664986,0 C21.0687427,1.88191925 21.0687427,3.19858592 21.0664986,3.95 L21.0664986,18.4333333 L1.31665616,18.4333333 C0.589487043,18.4333333 0,19.0228251 0,19.75 L0,72.4166667 C0,73.1438416 0.589487043,73.7333333 1.31665616,73.7333333 L21.0664986,73.7333333 L21.0664986,75.05 C21.0688031,75.8216431 21.0688031,77.1383097 21.0664986,79 C23.0189103,78.9979664 24.3355664,78.9979664 25.0164671,79 L75.0494012,79 C75.8549508,78.9975941 77.1718171,78.9975941 79,79 C78.9976475,77.0136598 78.9976475,75.6969931 79,75.05 L79,3.95 C78.9976514,3.3043102 78.9976514,1.98764353 79,0 C77.1731204,0.00240975026 75.8562541,0.00240975026 75.0494012,0 Z M5.26662465,71.1 L2.63331232,71.1 L2.63331232,21.0666667 L5.26662465,21.0666667 L5.26662465,71.1 Z M7.89993697,71.1 L7.89993697,21.0666667 L36.8663725,21.0666667 L36.8663725,71.1 L7.89993697,71.1 Z M76.3660574,75.05 C76.3660574,75.7771749 75.7765703,76.3666667 75.0494012,76.3666667 L25.0164671,76.3666667 C24.289298,76.3666667 23.6998109,75.7771749 23.6998109,75.05 L23.6998109,73.7333333 L38.1830287,73.7333333 C38.9101978,73.7333333 39.4996848,73.1438416 39.4996848,72.4166667 L39.4996848,19.75 C39.4996848,19.0228251 38.9101978,18.4333333 38.1830287,18.4333333 L23.6998109,18.4333333 L23.6998109,3.95 C23.6998109,3.22282508 24.289298,2.63333333 25.0164671,2.63333333 L75.0494012,2.63333333 C75.7765703,2.63333333 76.3660574,3.22282508 76.3660574,3.95 L76.3660574,75.05 Z" id="Shape"></path>
                <path d="M72,14.6666667 L72,9.33333333 C72,8.59695367 71.3983826,8 70.65625,8 L30.34375,8 C29.6016174,8 29,8.59695367 29,9.33333333 L29,14.6666667 C29,15.4030463 29.6016174,16 30.34375,16 L70.65625,16 C71.3983826,16 72,15.4030463 72,14.6666667 Z M69.3125,13.3333333 L31.6875,13.3333333 L31.6875,10.6666667 L69.3125,10.6666667 L69.3125,13.3333333 Z" id="Shape"></path>
                <polygon id="Path" points="48 21 53 21 53 24 48 24"></polygon>
                <polygon id="Path" points="55 21 72 21 72 24 55 24"></polygon>
                <polygon id="Path" points="48 28 53 28 53 31 48 31"></polygon>
                <polygon id="Path" points="55 28 72 28 72 31 55 31"></polygon>
                <polygon id="Path" points="48 36 53 36 53 39 48 39"></polygon>
                <polygon id="Path" points="55 36 72 36 72 39 55 39"></polygon>
                <polygon id="Path" points="48 45 53 45 53 48 48 48"></polygon>
                <polygon id="Path" points="55 45 72 45 72 48 55 48"></polygon>
                <path d="M22,39 C18.1340068,39 15,42.1340068 15,46 C15,49.8659932 18.1340068,53 22,53 C25.8659932,53 29,49.8659932 29,46 C28.9953714,42.1359256 25.8640744,39.0046286 22,39 L22,39 Z M22,50.2 C19.6804041,50.2 17.8,48.3195959 17.8,46 C17.8,43.6804041 19.6804041,41.8 22,41.8 C24.3195959,41.8 26.2,43.6804041 26.2,46 C26.2,48.3195959 24.3195959,50.2 22,50.2 Z" id="Shape"></path>
                <path d="M32.7222222,29.2941176 C30.607752,29.2875765 28.8952039,27.5137096 28.8888889,25.3235294 C28.8888889,24.5925643 28.3168083,24 27.6111111,24 L17.3888889,24 C16.6831917,24 16.1111111,24.5925643 16.1111111,25.3235294 C16.1047961,27.5137096 14.392248,29.2875765 12.2777778,29.2941176 C11.5720806,29.2941176 11,29.8866819 11,30.6176471 L11,62.3823529 C11,63.1133181 11.5720806,63.7058824 12.2777778,63.7058824 C14.392248,63.7124235 16.1047961,65.4862904 16.1111111,67.6764706 C16.1111111,68.4074357 16.6831917,69 17.3888889,69 L27.6111111,69 C28.3168083,69 28.8888889,68.4074357 28.8888889,67.6764706 C28.8952039,65.4862904 30.607752,63.7124235 32.7222222,63.7058824 C33.4279194,63.7058824 34,63.1133181 34,62.3823529 L34,30.6176471 C34,29.8866819 33.4279194,29.2941176 32.7222222,29.2941176 L32.7222222,29.2941176 Z M31.4444444,61.1911765 C28.9361914,61.7246065 26.9761015,63.7548786 26.4611111,66.3529412 L18.5388889,66.3529412 C18.0238985,63.7548786 16.0638086,61.7246065 13.5555556,61.1911765 L13.5555556,31.8088235 C16.0638086,31.2753935 18.0238985,29.2451214 18.5388889,26.6470588 L26.4611111,26.6470588 C26.9761015,29.2451214 28.9361914,31.2753935 31.4444444,31.8088235 L31.4444444,61.1911765 Z" id="Shape"></path>
            </g>
        </g>
    </g>
</svg>