<?xml version="1.0" encoding="UTF-8"?>
<svg width="115px" height="89px" viewBox="0 0 115 89" version="1.1" xmlns="http://www.w3.org/2000/svg" xmlns:xlink="http://www.w3.org/1999/xlink">
    <!-- Generator: Sketch 55.1 (78136) - https://sketchapp.com -->
    <title>Group 9</title>
    <desc>Created with Sketch.</desc>
    <g id="Web---E1---V2" stroke="none" stroke-width="1" fill="none" fill-rule="evenodd">
        <g id="SB-Logistics" transform="translate(-664.000000, -4009.000000)" stroke="#6AA12A" stroke-width="4">
            <g id="Group-9" transform="translate(664.000000, 4011.000000)">
                <polyline id="Path-25" points="104.562045 2.23820962e-13 43.1201421 2.23820962e-13 43.1201421 16.3584174 21.9933732 16.3584174 14.7741942 38.9295113 2.7132857 44.4915689 2.7132857 63.8817235 111.88273 63.8817235"></polyline>
                <path d="M14.7741942,38.9295113 L43.579978,38.9295113" id="Path-26"></path>
                <path d="M43.579978,24.7944493 L43.579978,54.5614858" id="Path-27"></path>
                <path d="M80.0170809,16.1688574 L114.775049,16.1688574" id="Path-28"></path>
                <path d="M68,25.1801778 L102.757968,25.1801778" id="Path-28-Copy"></path>
                <path d="M76,54.1801778 L102.757968,54.1801778" id="Path-28-Copy-2"></path>
                <path d="M97.3960649,72.8583072 C97.3960649,80.6936702 94.044352,84.6113517 87.3409263,84.6113517 C80.6375006,84.6113517 77.6340612,80.6936702 78.3306083,72.8583072 L22.622821,72.8583072" id="Path-29"></path>
                <path d="M89.378984,72.8583072 L108.652033,72.8583072" id="Path-30"></path>
                <path d="M-1.13686838e-13,72.8583072 L12.1585331,72.8583072 C11.6776107,80.6936702 14.8167562,84.6113517 21.5759695,84.6113517 C28.3351828,84.6113517 31.7147895,80.6936702 31.7147895,72.8583072" id="Path-30-Copy"></path>
            </g>
        </g>
    </g>
</svg>