<?xml version="1.0" encoding="UTF-8"?>
<svg width="123px" height="98px" viewBox="0 0 123 98" version="1.1" xmlns="http://www.w3.org/2000/svg" xmlns:xlink="http://www.w3.org/1999/xlink">
    <!-- Generator: Sketch 55.1 (78136) - https://sketchapp.com -->
    <title>trailer</title>
    <desc>Created with Sketch.</desc>
    <g id="Web---E1---V2" stroke="none" stroke-width="1" fill="none" fill-rule="evenodd">
        <g id="SB-Logistics" transform="translate(-979.000000, -832.000000)" fill="#6AA12A" fill-rule="nonzero">
            <g id="trailer" transform="translate(979.000000, 832.000000)">
                <path d="M122.39935,72.047569 L118.9,68.562878 L118.9,51.0353108 C118.9,49.9079408 117.982112,48.9938984 116.85,48.9938984 L86.1,48.9938984 L86.1,36.7454238 L90.2,36.7454238 L90.2,44.9110735 L94.3,44.9110735 L94.3,34.7040114 C94.3,33.5766414 93.3821125,32.6625989 92.25,32.6625989 L86.1,32.6625989 L86.1,22.4555368 C86.1002562,21.6818415 85.6613,20.9742369 84.96635,20.6284726 L76.76635,16.5456478 C76.4816563,16.40428 76.1680063,16.3310443 75.85,16.3312995 L57.4,16.3312995 L57.4,2.04141243 C57.4,0.914042417 56.4821125,0 55.35,0 L47.15,0 C46.0178875,0 45.1,0.914042417 45.1,2.04141243 L45.1,36.7454238 C43.9678875,36.7454238 43.05,37.6594662 43.05,38.7868362 L43.05,59.2009606 C43.05,60.3283306 43.9678875,61.242373 45.1,61.242373 L45.1,73.4908476 L2.05,73.4908476 C0.9178875,73.4908476 0,74.40489 0,75.5322601 L0,87.7807347 C0,88.9081047 0.9178875,89.8221471 2.05,89.8221471 L8.405,89.8221471 C9.5207125,95.3337055 14.9122125,98.9010737 20.4469563,97.790035 C23.6165125,97.1538798 26.2968875,95.0619425 27.675,92.1493573 C30.0814438,97.2355363 36.1730188,99.4162752 41.2805938,97.0199122 C44.2054312,95.6475726 46.3059125,92.9784259 46.945,89.8221471 L51.25,89.8221471 L51.25,91.8635595 C51.25,92.9909295 52.1678875,93.904972 53.3,93.904972 L73.8,93.904972 C74.9321125,93.904972 75.85,92.9909295 75.85,91.8635595 L75.85,89.8221471 L94.505,89.8221471 C95.631475,95.3467195 101.041938,98.9156188 106.58975,97.7938626 C110.623381,96.9783184 113.776025,93.8388812 114.595,89.8221471 L120.95,89.8221471 C122.082112,89.8221471 123,88.9081047 123,87.7807347 L123,73.4908476 C123,72.949363 122.783725,72.4303339 122.39935,72.047569 Z M110.7,53.0767233 L114.8,53.0767233 L114.8,67.3666103 L110.7,67.3666103 L110.7,53.0767233 Z M57.4,20.4141243 L75.3662,20.4141243 L82,23.7171297 L82,28.5797741 L57.4,28.5797741 L57.4,20.4141243 Z M57.4,61.242373 C58.5321125,61.242373 59.45,60.3283306 59.45,59.2009606 L59.45,38.7868362 C59.45,37.6594662 58.5321125,36.7454238 57.4,36.7454238 L57.4,32.6625989 L82,32.6625989 L82,57.1595481 L75.85,57.1595481 C74.7178875,57.1595481 73.8,58.0735906 73.8,59.2009606 L73.8,73.4908476 L57.4,73.4908476 L57.4,61.242373 Z M82,61.242373 L82,73.4908476 L77.9,73.4908476 L77.9,61.242373 L82,61.242373 Z M49.2,4.08282487 L53.3,4.08282487 L53.3,18.3727119 L53.3,36.7454238 L49.2,36.7454238 L49.2,4.08282487 Z M47.15,40.8282487 L55.35,40.8282487 L55.35,57.1595481 L47.15,57.1595481 L47.15,40.8282487 Z M53.3,61.242373 L53.3,73.4908476 L49.2,73.4908476 L49.2,61.242373 L53.3,61.242373 Z M8.405,85.7393222 L4.1,85.7393222 L4.1,77.5736725 L18.1878562,77.5736725 C16.8033375,77.6050592 15.4029312,77.9161194 14.0694062,78.5415572 C11.1445687,79.9138967 9.04383125,82.5830434 8.405,85.7393222 Z M18.45,93.904972 C15.0534063,93.904972 12.3,91.1630999 12.3,87.7807347 C12.3,84.3983694 15.0534063,81.6564974 18.45,81.6564974 C21.8465938,81.6564974 24.6,84.3983694 24.6,87.7807347 C24.6,91.1630999 21.8465938,93.904972 18.45,93.904972 Z M27.675,83.412112 C25.9686312,79.8051915 22.4088062,77.6622187 18.66115,77.5736725 L36.7406125,77.5736725 C36.1335563,77.5851554 35.519325,77.6476737 34.9030438,77.7714343 C31.7334875,78.4078446 29.0531125,80.4995269 27.675,83.412112 Z M36.9,93.904972 C33.5034062,93.904972 30.75,91.1630999 30.75,87.7807347 C30.75,84.3983694 33.5034062,81.6564974 36.9,81.6564974 C40.2965937,81.6564974 43.05,84.3983694 43.05,87.7807347 C43.05,91.1630999 40.2965937,93.904972 36.9,93.904972 Z M71.75,89.8221471 L55.35,89.8221471 L55.35,85.7393222 L71.75,85.7393222 L71.75,89.8221471 Z M86.1,85.7393222 L75.85,85.7393222 L75.85,83.6979098 C75.85,82.5705398 74.9321125,81.6564974 73.8,81.6564974 L53.3,81.6564974 C52.1678875,81.6564974 51.25,82.5705398 51.25,83.6979098 L51.25,85.7393222 L46.945,85.7393222 C45.9809875,80.9769622 41.8241,77.6691085 37.1413875,77.5736725 L86.1,77.5736725 L86.1,85.7393222 Z M86.1,73.4908476 L86.1,53.0767233 L106.6,53.0767233 L106.6,67.3666103 L94.3,67.3666103 C93.7562375,67.3666103 93.235025,67.5819793 92.85065,67.9647442 L87.3013,73.4908476 L86.1,73.4908476 Z M104.55,93.904972 C101.153406,93.904972 98.4,91.1630999 98.4,87.7807347 C98.4,84.3983694 101.153406,81.6564974 104.55,81.6564974 C107.946594,81.6564974 110.7,84.3983694 110.7,87.7807347 C110.7,91.1630999 107.946594,93.904972 104.55,93.904972 Z M118.9,85.7393222 L114.595,85.7393222 C113.468525,80.2147498 108.058063,76.6458505 102.51025,77.7676067 C98.4766188,78.5831509 95.323975,81.7225881 94.505,85.7393222 L94.505,85.7393222 L90.2,85.7393222 L90.2,76.3774048 L95.1487,71.4494352 L116.0013,71.4494352 L118.9,74.3359924 L118.9,85.7393222 Z" id="Shape"></path>
                <path d="M76,36 L66,36 C64.8955,36 64,36.8955 64,38 L64,48 C64,49.1045 64.8955,50 66,50 L76,50 C77.1045,50 78,49.1045 78,48 L78,38 C78,36.8955 77.1045,36 76,36 Z M74,46 L68,46 L68,40 L74,40 L74,46 Z" id="Shape"></path>
            </g>
        </g>
    </g>
</svg>