<?xml version="1.0" encoding="UTF-8"?>
<svg width="101px" height="100px" viewBox="0 0 101 100" version="1.1" xmlns="http://www.w3.org/2000/svg" xmlns:xlink="http://www.w3.org/1999/xlink">
    <!-- Generator: Sketch 55.1 (78136) - https://sketchapp.com -->
    <title>warehouse</title>
    <desc>Created with Sketch.</desc>
    <g id="Web---E1---V2" stroke="none" stroke-width="1" fill="none" fill-rule="evenodd">
        <g id="SB-Logistics" transform="translate(-674.000000, -830.000000)" fill="#6AA12A" fill-rule="nonzero">
            <g id="warehouse" transform="translate(674.000000, 830.000000)">
                <path d="M100.185182,29.2771064 L51.335024,0.226826996 C50.8317086,-0.066888146 50.2129574,-0.0767495497 49.7032611,0.205363941 L0.853103228,27.6056952 C0.326777982,27.8943829 0,28.4487485 0,29.0493273 L0,98.3498584 C0,99.2623283 1.73921433,100 2.64993877,100 L10.9000193,100 C11.8107438,100 13.5499581,99.2623283 13.5499581,98.3498584 L13.5499581,40.5995448 L87.4500418,40.5995448 L87.4500418,98.3500518 C87.4500418,99.2625217 89.1875159,100 90.0999806,100 L98.3500611,100 C99.2625258,100 101,99.2625217 101,98.3500518 L101,30.6994689 C101,30.1135855 100.690044,29.5723685 100.185182,29.2771064 Z M96.7001224,95.6999103 L91.7501127,95.6999103 L91.7501127,38.9494032 C91.7501127,38.0386736 91.0126386,36.299455 90.1001739,36.299455 L10.9000193,36.299455 C9.98929489,36.299455 9.25008056,38.0386736 9.25008056,38.9494032 L9.25008056,95.6999103 L4.3000709,95.6999103 L4.3000709,30.0228992 L50.4753466,4.54663955 L96.7001224,31.6448101 L96.7001224,95.6999103 Z" id="Shape"></path>
                <path d="M83.5000502,79 L65.4999498,79 C64.6704334,79 64,79.6704334 64,80.4999498 L64,98.5000502 C64,99.3295666 64.6704334,100 65.4999498,100 L83.5000502,100 C84.3295666,100 85,99.3295666 85,98.5000502 L85,80.4999498 C85,79.6704334 84.3295666,79 83.5000502,79 Z M82,97 L67,97 L67,82 L82,82 L82,97 L82,97 Z" id="Shape"></path>
                <path d="M76.6669271,81 L76.6669271,85.2000656 L73.3334635,85.2000656 L73.3334635,81 L70,81 L70,86.6000328 C70,87.3742558 70.7449364,88 71.6666341,88 L78.3333659,88 C79.2550636,88 80,87.3742558 80,86.6000328 L80,81 L76.6669271,81 Z" id="Path"></path>
                <path d="M65.5000502,79 L47.4999498,79 C46.6720155,79 46,79.6704334 46,80.4999498 L46,98.5000502 C46,99.3295666 46.6720155,100 47.4999498,100 L65.5000502,100 C66.3295666,100 67,99.3295666 67,98.5000502 L67,80.4999498 C67,79.6704334 66.3295666,79 65.5000502,79 Z M64,97 L49,97 L49,82 L64,82 L64,97 Z" id="Shape"></path>
                <path d="M58.0002344,81 L58.0002344,85.2000656 L55.0001172,85.2000656 L55.0001172,81 L52,81 L52,86.6000328 C52,87.3742558 52.6720248,88 53.4999707,88 L59.5000293,88 C60.3295572,88 61,87.3742558 61,86.6000328 L61,81 L58.0002344,81 Z" id="Path"></path>
                <path d="M83.5000502,61 L65.4999498,61 C64.6704334,61 64,61.6704334 64,62.4999498 L64,80.5000502 C64,81.3295666 64.6704334,82 65.4999498,82 L83.5000502,82 C84.3295666,82 85,81.3295666 85,80.5000502 L85,62.4999498 C85,61.6704334 84.3295666,61 83.5000502,61 Z M82,79 L67,79 L67,64 L82,64 L82,79 L82,79 Z" id="Shape"></path>
                <path d="M76.6669271,63 L76.6669271,67.2000656 L73.3334635,67.2000656 L73.3334635,63 L70,63 L70,68.6000328 C70,69.3742558 70.7449364,70 71.6666341,70 L78.3333659,70 C79.2550636,70 80,69.3742558 80,68.6000328 L80,63 L76.6669271,63 Z" id="Path"></path>
                <rect id="Rectangle" x="11" y="51" width="79" height="4"></rect>
                <rect id="Rectangle" x="11" y="44" width="79" height="4"></rect>
                <path d="M59.3333822,24 L42.6666178,24 C41.746687,24 41,24.7466943 41,25.6666341 L41,32.3333659 C41,33.2533057 41.746687,34 42.6666178,34 L59.3333822,34 C60.2550709,34 61,33.2533057 61,32.3333659 L61,25.6666341 C61,24.7466943 60.2550709,24 59.3333822,24 Z M57.666569,30.6669271 L44.3330404,30.6669271 L44.3330404,27.3334635 L57.666569,27.3334635 L57.666569,30.6669271 Z" id="Shape"></path>
            </g>
        </g>
    </g>
</svg>